HIERARCHY
ROOT Hips
{
	OFFSET -3.958830 18.904000 13.208200
	CHANNELS 6 Xposition Yposition Zposition Zrotation Yrotation Xrotation 
	JOINT LHipJoint
	{
		OFFSET 0.000000 0.000000 0.000000
		CHANNELS 3 Zrotation Yrotation Xrotation
		JOINT LeftUpLeg
		{
			OFFSET 1.800000 -1.400000 0.085000
			CHANNELS 3 Zrotation Yrotation Xrotation
			JOINT LeftLeg
			{
				OFFSET 2.215000 -6.000000 0.000000
				CHANNELS 3 Zrotation Yrotation Xrotation
				JOINT LeftFoot
				{
					OFFSET 2.500000 -6.900000 0.000000
					CHANNELS 3 Zrotation Yrotation Xrotation
					JOINT LeftToeBase
					{
						OFFSET 0.200000 -0.500000 1.950000
						CHANNELS 3 Zrotation Yrotation Xrotation
						End Site
						{
							OFFSET 0.000000 0.000000 0.000000
						}
					}
				}
			}
		}
	}
	JOINT RHipJoint
	{
		OFFSET 0.000000 0.000000 0.000000
		CHANNELS 3 Zrotation Yrotation Xrotation
		JOINT RightUpLeg
		{
			OFFSET -1.800000 -1.400000 0.085000
			CHANNELS 3 Zrotation Yrotation Xrotation
			JOINT RightLeg
			{
				OFFSET -2.215000 -6.000000 0.000000
				CHANNELS 3 Zrotation Yrotation Xrotation
				JOINT RightFoot
				{
					OFFSET -2.500000 -6.900000 0.000000
					CHANNELS 3 Zrotation Yrotation Xrotation
					JOINT RightToeBase
					{
						OFFSET -0.200000 -0.500000 1.950000
						CHANNELS 3 Zrotation Yrotation Xrotation
						End Site
						{
							OFFSET 0.000000 0.000000 0.000000
						}
					}
				}
			}
		}
	}
	JOINT LowerBack
	{
		OFFSET 0.000000 0.000000 0.000000
		CHANNELS 3 Zrotation Yrotation Xrotation
		JOINT Spine
		{
			OFFSET -0.087000 1.940000 -0.288900
			CHANNELS 3 Zrotation Yrotation Xrotation
			JOINT Spine1
			{
				OFFSET 0.000000 1.950000 0.060000
				CHANNELS 3 Zrotation Yrotation Xrotation
				JOINT Neck
				{
					OFFSET 0.000000 0.000000 0.000000
					CHANNELS 3 Zrotation Yrotation Xrotation
					JOINT Neck1
					{
						OFFSET 0.000000 1.600000 0.340000
						CHANNELS 3 Zrotation Yrotation Xrotation
						JOINT Head
						{
							OFFSET 0.000000 1.667000 -0.240000
							CHANNELS 3 Zrotation Yrotation Xrotation
							End Site
							{
								OFFSET 0.000000 0.000000 0.000000
							}
						}
					}
				}
				JOINT LeftShoulder
				{
					OFFSET 0.000000 0.000000 0.000000
					CHANNELS 3 Zrotation Yrotation Xrotation
					JOINT LeftArm
					{
						OFFSET 2.700000 1.550000 -0.730000
						CHANNELS 3 Zrotation Yrotation Xrotation
						JOINT LeftForeArm
						{
							OFFSET 5.450000 0.000000 0.000000
							CHANNELS 3 Zrotation Yrotation Xrotation
							JOINT LeftHand
							{
								OFFSET 3.450000 0.000000 0.000000
								CHANNELS 3 Zrotation Yrotation Xrotation
								JOINT LeftHandIndex1
								{
									OFFSET 0.750000 0.000000 0.000000
									CHANNELS 3 Zrotation Yrotation Xrotation
									End Site
									{
										OFFSET 0.000000 0.000000 0.000000
									}
								}
							}
						}
					}
				}
				JOINT RightShoulder
				{
					OFFSET 0.000000 0.000000 0.000000
					CHANNELS 3 Zrotation Yrotation Xrotation
					JOINT RightArm
					{
						OFFSET -2.700000 1.550000 -0.730000
						CHANNELS 3 Zrotation Yrotation Xrotation
						JOINT RightForeArm
						{
							OFFSET -5.450000 0.000000 0.000000
							CHANNELS 3 Zrotation Yrotation Xrotation
							JOINT RightHand
							{
								OFFSET -3.450000 0.000000 0.000000
								CHANNELS 3 Zrotation Yrotation Xrotation
								JOINT RightHandIndex1
								{
									OFFSET -0.750000 0.000000 0.000000
									CHANNELS 3 Zrotation Yrotation Xrotation
									End Site
									{
										OFFSET 0.000000 0.000000 0.000000
									}
								}
							}
						}
					}
				}
			}
		}
	}
}
MOTION
Frames: 8
Frame Time: 0.016667
-0.828970 13.458340 3.425180 42.648542 -22.913249 -58.772538 -15.790583 13.393957 3.772688 26.298795 -8.105930 -14.662307 -17.192962 17.417826 40.895525 0.992375 10.172229 0.830622 0.282800 0.172370 0.318890 17.959777 -7.412679 4.078653 -6.726646 6.565781 -52.238452 -4.629037 -2.440984 27.794719 -0.087455 -2.375846 3.338182 0.048820 -0.231550 0.033490 -1.949902 -7.095134 -9.047957 11.951244 -7.080337 60.468427 13.823189 -3.710220 18.188391 -1.525975 -4.786294 -15.245546 -14.875903 -1.969249 44.199118 -4.234900 -4.403810 -6.768880 -9.498575 -13.878661 6.304357 22.508239 9.060066 0.336506 8.272412 -2.288369 -0.268733 -3.647075 2.723327 0.302440 -0.195000 0.203560 0.010500 12.878960 17.740137 12.794159 10.716520 -4.718127 -1.199347 -3.033482 -2.709406 0.088951 2.914588 -0.968100 0.035890 0.029250 -0.123670 -0.105350 
-0.818570 13.506440 3.336050 45.553757 -23.037376 -60.357221 -15.925876 12.964390 4.459480 26.578105 -9.348820 -16.461675 -25.109798 22.294074 43.538136 1.483413 11.657876 0.419222 0.300670 0.192030 0.325270 17.906087 -7.193375 3.687516 -4.007783 7.270182 -48.974761 -4.804535 -1.798739 25.196773 -0.040401 -1.858171 3.542111 0.049400 -0.248080 0.024800 -1.684697 -7.309486 -9.284198 8.719317 -4.714779 62.155551 14.760709 -2.473242 19.014799 -1.658112 -5.712572 -15.752826 -17.319272 -1.666984 45.266331 -3.912960 -5.424180 -6.649410 -9.620255 -13.947518 6.489640 22.546879 8.673337 0.259777 7.248005 -0.283357 -0.379771 -3.637690 2.621174 0.308780 -0.222850 0.221450 0.021880 13.247815 19.278958 13.533127 9.383761 -4.837662 -1.138215 -2.758707 -2.994398 0.069498 2.934704 -0.939882 0.050800 0.034160 -0.140640 -0.092030 
-0.817090 13.561580 3.233390 48.916142 -23.604726 -62.786964 -16.012561 12.669206 4.948760 25.735388 -9.852064 -18.104271 -32.570284 26.147813 43.751332 1.870301 12.529950 0.229456 0.277720 0.164710 0.293900 17.873624 -7.087555 3.369040 -1.230940 8.015237 -45.036309 -4.100161 -1.622652 24.793416 -0.012114 -1.705675 3.625181 0.023950 -0.240020 0.012830 -1.504448 -7.487537 -9.429062 5.737933 -2.487892 64.725210 15.105952 -1.122511 19.560215 -1.656476 -7.393831 -16.495965 -21.205724 -0.657899 45.037207 -3.682610 -6.293300 -5.972260 -10.379267 -14.275945 6.679524 22.850754 9.044189 0.175095 6.556199 0.951156 -0.478128 -3.631003 2.552689 0.304750 -0.237660 0.213360 0.025150 14.141974 21.470031 14.629231 7.915928 -5.412471 -1.179359 -3.076557 -3.569776 0.100091 2.967841 -0.906127 0.054850 0.037320 -0.130440 -0.074390 
-0.810010 13.576710 3.183750 51.584812 -23.410862 -64.325165 -16.090513 12.394602 5.374045 23.997387 -10.810259 -20.646814 -39.168092 30.425282 45.446186 2.257932 13.411806 0.057474 0.263280 0.151130 0.267910 17.842830 -7.029968 3.079135 0.686624 8.049364 -41.854752 -3.534452 -1.633620 24.834048 -0.002446 -1.706172 3.650633 0.010780 -0.228420 0.004780 -1.364315 -7.554336 -9.553919 3.057920 -0.210555 65.365722 15.735809 0.050939 19.869285 -1.852107 -7.907863 -17.106144 -22.687725 -0.010960 45.391504 -3.307470 -6.528650 -4.953550 -10.253371 -14.700577 6.934637 22.634409 8.229898 -0.083070 5.805786 2.431723 -0.608281 -3.661284 2.465112 0.297160 -0.237610 0.203810 0.033720 14.518273 22.792042 15.330979 7.937490 -5.981316 -1.319881 -3.922480 -4.240089 0.169856 3.002461 -0.909444 0.055670 0.035760 -0.127760 -0.062610 
-0.783080 13.581120 3.146770 52.874855 -22.789922 -64.587016 -16.159817 12.176507 5.781573 21.855427 -12.051582 -24.810677 -45.152847 33.418288 45.975719 2.502882 13.941560 -0.038110 0.255610 0.142330 0.280880 17.811345 -7.063431 2.732780 2.444075 7.274857 -38.642723 -4.401526 -1.316969 22.914876 0.020385 -1.500321 3.732721 0.002780 -0.239620 0.011000 -1.240358 -7.585696 -9.642188 1.124615 1.432616 64.958765 16.436393 0.748541 19.900573 -1.975890 -7.164140 -17.327960 -21.125994 -0.098487 46.101858 -3.876450 -5.649820 -4.646060 -9.593202 -15.186215 7.238946 22.375202 7.708124 -0.238350 5.293707 2.746266 -0.664469 -3.697470 2.408010 0.299950 -0.232690 0.211050 0.020070 14.055255 23.134157 15.405091 8.859257 -5.604104 -1.404732 -4.093197 -4.513976 0.202728 3.015613 -0.914209 0.056550 0.023910 -0.124650 -0.074410 
-0.754870 13.556530 3.125450 54.565273 -23.084074 -65.236845 -16.170254 11.969437 5.983858 19.623665 -12.572114 -27.899431 -50.290895 34.997006 44.685381 2.639971 14.099085 -0.033386 0.242310 0.124620 0.263570 17.825434 -7.083181 2.633504 3.855256 7.300264 -36.652556 -3.714848 -1.532854 23.911490 0.006615 -1.673568 3.677941 -0.006390 -0.223000 0.017670 -1.255705 -7.402159 -9.702229 -0.241814 2.578570 64.219528 16.445408 1.095369 19.787381 -2.211660 -7.179601 -17.536322 -21.372556 0.189739 46.968431 -3.937750 -5.671730 -3.483810 -9.102375 -15.325341 7.493702 21.718426 7.438812 -0.423767 5.812856 3.067080 -0.667366 -3.752554 2.401933 0.287270 -0.219120 0.197570 0.021910 14.082665 23.599305 15.329532 9.149026 -4.332864 -1.467346 -4.576821 -5.328049 0.259508 3.049413 -0.929829 0.057250 0.016380 -0.114940 -0.068190 
-0.713180 13.505320 3.108430 56.403668 -23.888314 -64.784942 -16.174499 11.671800 6.165085 17.487104 -13.118399 -32.664029 -52.507440 35.857503 44.791226 2.741613 14.283739 -0.046750 0.226120 0.111960 0.256060 17.867809 -7.034390 2.681434 6.231956 7.578226 -35.966897 -5.396135 -1.037895 23.378304 0.021761 -1.636086 3.702159 -0.011980 -0.211130 0.020950 -1.322849 -7.043389 -9.800475 -1.202548 3.760459 62.270700 16.317984 1.820080 19.058329 -2.537202 -6.361457 -17.109839 -19.647417 -0.125959 47.918508 -4.476140 -5.034700 -1.929050 -8.483477 -15.191269 7.326997 21.562300 6.979082 -0.439551 5.634193 2.041902 -0.587194 -3.740719 2.478682 0.257910 -0.192270 0.181060 0.020540 13.985486 23.226656 14.954589 10.663328 -3.206301 -1.575195 -5.974224 -5.323033 0.357534 3.064309 -1.010728 0.057930 0.000270 -0.115270 -0.067000 
-0.676420 13.474060 3.105470 58.013145 -25.243752 -65.201669 -16.171354 11.558386 6.241955 16.134355 -13.576812 -35.630346 -49.982095 35.813043 47.315239 2.788155 14.555204 -0.100740 0.197640 0.082730 0.228480 17.895815 -7.101111 2.618702 8.385966 7.404935 -33.210996 -6.614468 -0.691372 22.295892 0.035740 -1.610657 3.736276 -0.024420 -0.180380 0.012370 -1.343565 -6.903047 -9.822321 -1.638601 4.664452 61.423320 16.262664 2.730221 18.907497 -2.693775 -6.487244 -17.010353 -19.862310 0.019199 47.608352 -4.060850 -5.058880 -1.213990 -8.107906 -15.024535 7.106042 21.510669 6.900972 -0.347303 5.318381 0.456243 -0.479396 -3.692410 2.546230 0.245230 -0.176230 0.158490 0.022110 13.930203 23.445169 15.145043 10.662517 -3.247758 -1.517103 -5.510650 -5.381405 0.332663 3.057819 -0.999687 0.043550 0.012020 -0.100240 -0.059950 
